<mxfile host="www.draw.io" modified="2020-03-07T05:54:49.479Z" agent="Mozilla/5.0 (Macintosh; Intel Mac OS X 10_14_6) AppleWebKit/537.36 (KHTML, like Gecko) Chrome/80.0.3987.122 Safari/537.36" etag="lV0YByL0h_muI8QFeIRB" version="12.8.1" type="github">
  <diagram id="yTsiKGT-jx-9RgT5msi1" name="Page-1">
    <mxGraphModel dx="932" dy="529" grid="1" gridSize="10" guides="1" tooltips="1" connect="1" arrows="1" fold="1" page="1" pageScale="1" pageWidth="827" pageHeight="1169" math="0" shadow="0">
      <root>
        <mxCell id="0" />
        <mxCell id="1" parent="0" />
        <mxCell id="ZHMmIGuPp1aREH-a8jXW-4" style="edgeStyle=orthogonalEdgeStyle;rounded=0;orthogonalLoop=1;jettySize=auto;html=1;entryX=0;entryY=0.5;entryDx=0;entryDy=0;" edge="1" parent="1" source="ZHMmIGuPp1aREH-a8jXW-1" target="ZHMmIGuPp1aREH-a8jXW-3">
          <mxGeometry relative="1" as="geometry" />
        </mxCell>
        <mxCell id="ZHMmIGuPp1aREH-a8jXW-1" value="" style="rounded=0;whiteSpace=wrap;html=1;" vertex="1" parent="1">
          <mxGeometry x="120" y="210" width="120" height="60" as="geometry" />
        </mxCell>
        <mxCell id="ZHMmIGuPp1aREH-a8jXW-3" value="" style="rounded=1;whiteSpace=wrap;html=1;" vertex="1" parent="1">
          <mxGeometry x="470" y="210" width="120" height="60" as="geometry" />
        </mxCell>
      </root>
    </mxGraphModel>
  </diagram>
</mxfile>
